<svg xmlns="http://www.w3.org/2000/svg" width="160" height="190" viewBox="0 0 160 190"><defs><linearGradient id="g"><stop stop-color="#a84f4b"/><stop offset="1" stop-color="#4b3838"/></linearGradient></defs><ellipse cx="80" cy="171" rx="44" ry="10" fill="#221f22" opacity=".32"/><path d="M46 166l14-78h40l14 78-34 12z" fill="url(#g)" stroke="#d8c7a4" stroke-width="4"/><circle cx="80" cy="62" r="28" fill="#dfb99d" stroke="#523e37" stroke-width="4"/><path d="M52 60c4-32 23-41 40-35 15 5 24 18 17 40-17-12-37-14-57-5z" fill="#302f33"/><path d="M55 100l-32 38M105 100l31 37" stroke="#4a4340" stroke-width="9" stroke-linecap="round"/><path d="M43 112l13-15 13 15-13 18zM91 112l13-15 13 15-13 18z" fill="#d35d4f" stroke="#f0d89a" stroke-width="3"/><circle cx="69" cy="64" r="3"/><circle cx="91" cy="64" r="3"/><path d="M66 79h28" stroke="#80544c" stroke-width="3" stroke-linecap="round"/><path d="M111 38l16 8-16 8z" fill="#e2bf65"/></svg>