<svg xmlns="http://www.w3.org/2000/svg" width="760" height="460" viewBox="0 0 760 460"><defs><linearGradient id="bg" x2="1" y2="1"><stop stop-color="#66528f"/><stop offset="1" stop-color="#25263d"/></linearGradient><radialGradient id="r"><stop stop-color="#dfd1ff" stop-opacity=".62"/><stop offset="1" stop-color="#dfd1ff" stop-opacity="0"/></radialGradient></defs><rect width="760" height="460" fill="url(#bg)"/><circle cx="570" cy="115" r="185" fill="url(#r)"/><path d="M0 300l115-78 91 46 111-83 111 79 105-80 100 69 127-50v257H0z" fill="#292b46" opacity=".72"/><path d="M0 365c145-38 290-31 438 7 113 29 216 21 322-18v106H0z" fill="#8c7b67"/><g transform="translate(76 34)"><path d="M76 378l16-201h118l18 201-77 24z" fill="#7562a1" stroke="#ded5ed" stroke-width="8"/><circle cx="151" cy="128" r="73" fill="#e9c1ad" stroke="#51414b" stroke-width="7"/><path d="M77 128c3-78 49-109 93-89 34 15 59 50 46 102-41-30-92-42-139-13z" fill="#352f4c"/><path d="M94 220l-62 80M208 220l64 79" stroke="#63527e" stroke-width="19" stroke-linecap="round"/><circle cx="124" cy="130" r="8"/><circle cx="179" cy="130" r="8"/><path d="M151 20a39 39 0 1 0 33 60 44 44 0 1 1-33-60z" fill="#e4d7ff"/></g><g fill="#efd984"><path d="M530 74l8 17 19 2-14 13 4 19-17-9-17 9 4-19-14-13 19-2z"/><circle cx="624" cy="155" r="9"/><circle cx="666" cy="102" r="5"/></g></svg>