<svg xmlns="http://www.w3.org/2000/svg" width="180" height="140" viewBox="0 0 600 400"><defs><linearGradient id="bg"><stop stop-color="#5c9698"/><stop offset="1" stop-color="#273f60"/></linearGradient><filter id="gl"><feGaussianBlur stdDeviation="10" result="b"/><feMerge><feMergeNode in="b"/><feMergeNode in="SourceGraphic"/></feMerge></filter></defs><rect width="600" height="400" rx="42" fill="url(#bg)"/><path d="M0 275c110-55 215-44 310 18 88 57 175 59 290 8v99H0Z" fill="#345e70"/><g fill="none" stroke="#bdece8" stroke-width="10" opacity=".55"><path d="M45 290c98-40 180-34 258 16 84 53 164 54 255 14"/><path d="M100 330c74-24 145-17 213 21"/></g><path d="M245 205c60-52 155-50 220 4-39 70-116 108-190 75l-54 32 16-60c-12-15-8-34 8-51Z" fill="#c6eff0" stroke="#f7f2d0" stroke-width="10" filter="url(#gl)"/><circle cx="414" cy="222" r="11" fill="#263f59"/><path d="M270 235h120" stroke="#84c8ce" stroke-width="10" stroke-linecap="round"/><g fill="#efffd5" filter="url(#gl)"><circle cx="170" cy="160" r="8"/><circle cx="480" cy="135" r="7"/></g></svg>