<svg xmlns="http://www.w3.org/2000/svg" width="180" height="140" viewBox="0 0 600 400"><defs><linearGradient id="bg" x1="0" y1="0" x2="0" y2="1"><stop stop-color="#3c3150"/><stop offset="1" stop-color="#181c2b"/></linearGradient><filter id="gl"><feGaussianBlur stdDeviation="10" result="b"/><feMerge><feMergeNode in="b"/><feMergeNode in="SourceGraphic"/></feMerge></filter></defs><rect width="600" height="400" rx="42" fill="url(#bg)"/><path d="M80 50h150v300H80ZM370 35h150v315H370Z" fill="#56455d"/><path d="M235 75h130v275H235Z" fill="#242538"/><path d="M255 350 300 90l45 260Z" fill="#4c4655" opacity=".65"/><path d="M213 120h52M335 155h58M205 238h68M330 275h70" stroke="#847292" stroke-width="12" stroke-linecap="round"/><g filter="url(#gl)"><circle cx="230" cy="92" r="18" fill="#f2c76d"/><circle cx="385" cy="130" r="17" fill="#e7bc68"/><path d="M300 230c25-20 46-18 65 0-19 25-40 39-65 54-25-15-46-29-65-54 19-18 40-20 65 0Z" fill="#a7edf0" opacity=".72"/></g><path d="M285 112v72M315 112v72" stroke="#5c4c31" stroke-width="8"/></svg>