<svg xmlns="http://www.w3.org/2000/svg" width="2400" height="1500" viewBox="0 0 2400 1500"><defs><linearGradient id="g" x1="0" y1="0" x2="0" y2="1"><stop stop-color="#62516f"/><stop offset="1" stop-color="#2f354d"/></linearGradient><pattern id="p" width="120" height="90" patternUnits="userSpaceOnUse"><rect width="120" height="90" fill="#6f6678"/><path d="M0 44h120M60 0v44M25 44v46M95 44v46" stroke="#554f61" stroke-width="7" opacity=".75"/><path d="M7 9h45M69 59h42" stroke="#92879a" stroke-width="4" opacity=".5"/></pattern><radialGradient id="plaza"><stop stop-color="#b9a36e"/><stop offset="1" stop-color="#81765f"/></radialGradient></defs><rect width="2400" height="1500" fill="url(#g)"/><path d="M0 560C520 530 740 430 1190 470s790 100 1210 20v520c-480-75-760-20-1160 60S480 1160 0 1110Z" fill="url(#p)"/><ellipse cx="1400" cy="740" rx="390" ry="280" fill="url(#plaza)" stroke="#d0bc83" stroke-width="18"/><path d="M1110 1460C1120 1170 1200 1020 1350 880M1470 620C1670 510 1830 440 2120 430M1060 690C790 620 540 620 250 700" fill="none" stroke="#c6b17a" stroke-width="105" opacity=".78"/><g fill="#ecd98b" opacity=".55"><circle cx="370" cy="680" r="9"/><circle cx="720" cy="600" r="7"/><circle cx="1670" cy="540" r="8"/><circle cx="1990" cy="460" r="6"/><circle cx="1340" cy="980" r="8"/></g></svg>