<svg xmlns="http://www.w3.org/2000/svg" width="2400" height="1500" viewBox="0 0 2400 1500"><defs><linearGradient id="roof" x1="0" x2="1"><stop stop-color="#49365d"/><stop offset="1" stop-color="#7b4b72"/></linearGradient><linearGradient id="wall"><stop stop-color="#d2bd9d"/><stop offset="1" stop-color="#927e78"/></linearGradient><filter id="glow"><feGaussianBlur stdDeviation="8" result="b"/><feMerge><feMergeNode in="b"/><feMergeNode in="SourceGraphic"/></feMerge></filter></defs><g stroke="#30263f" stroke-width="18" stroke-linejoin="round"><path d="M80 470V190l150-110 150 110v280Z" fill="url(#wall)"/><path d="M40 210 230 45l190 165Z" fill="url(#roof)"/><path d="M690 330V110h500v220Z" fill="url(#wall)"/><path d="M640 140 900 25l340 115Z" fill="url(#roof)"/><path d="M1560 450V145l210-120 220 120v305Z" fill="url(#wall)"/><path d="m1510 170 260-150 270 150Z" fill="url(#roof)"/><path d="M2010 905V600l145-105 150 105v305Z" fill="url(#wall)"/><path d="m1970 620 185-150 190 150Z" fill="url(#roof)"/><path d="M90 1230V970l210-100 230 100v260Z" fill="url(#wall)"/><path d="m45 990 250-150 270 150Z" fill="url(#roof)"/><path d="M1680 1370v-250h500v250Z" fill="url(#wall)"/><path d="m1630 1145 275-125 330 125Z" fill="url(#roof)"/></g><g fill="#f7dfa0" filter="url(#glow)"><circle cx="240" cy="310" r="20"/><circle cx="820" cy="230" r="18"/><circle cx="1080" cy="230" r="18"/><circle cx="1760" cy="310" r="20"/><circle cx="2150" cy="735" r="22"/><circle cx="300" cy="1080" r="20"/><circle cx="1880" cy="1260" r="20"/></g><g fill="#573c68"><rect x="730" y="650" width="155" height="115" rx="22"/><rect x="900" y="665" width="165" height="105" rx="22"/><rect x="760" y="790" width="350" height="55" rx="20"/></g><circle cx="1400" cy="655" r="100" fill="#7896a0" stroke="#c8c0a0" stroke-width="18"/><circle cx="1400" cy="655" r="46" fill="#b9d5d0" opacity=".75"/></svg>