<svg xmlns="http://www.w3.org/2000/svg" width="160" height="190" viewBox="0 0 160 190"><defs><linearGradient id="coat" x1="0" y1="0" x2="1" y2="1"><stop stop-color="#7ca7d9"/><stop offset="1" stop-color="#4d5f91"/></linearGradient></defs><ellipse cx="80" cy="172" rx="44" ry="10" fill="#24313d" opacity=".3"/><path d="M47 168l12-78h42l12 78-33 10z" fill="url(#coat)" stroke="#e6e2be" stroke-width="4"/><circle cx="80" cy="61" r="28" fill="#e8c1a3" stroke="#4d3d35" stroke-width="4"/><path d="M53 59c3-28 19-42 40-37 16 4 28 20 17 42-16-9-37-12-57-5z" fill="#35394f"/><path d="M57 105l-22 38M103 105l22 38" stroke="#6078ad" stroke-width="8" stroke-linecap="round"/><path d="M124 94v68" stroke="#d8d39e" stroke-width="6" stroke-linecap="round"/><path d="M114 96l10-16 10 16z" fill="#8dd2f0" stroke="#e9e6c7" stroke-width="3"/><circle cx="69" cy="63" r="3"/><circle cx="91" cy="63" r="3"/><path d="M71 77c6 4 12 4 18 0" fill="none" stroke="#9e6257" stroke-width="3"/><circle cx="124" cy="45" r="13" fill="#ffd36f"/><path d="M124 36v11" stroke="#7d5a1e" stroke-width="4" stroke-linecap="round"/><circle cx="124" cy="53" r="2.5" fill="#7d5a1e"/></svg>