<svg xmlns="http://www.w3.org/2000/svg" width="160" height="190" viewBox="0 0 160 190"><defs><linearGradient id="coat" x1="0" y1="0" x2="1" y2="1"><stop stop-color="#f3a86b"/><stop offset="1" stop-color="#9f6656"/></linearGradient></defs><ellipse cx="80" cy="172" rx="44" ry="10" fill="#24362f" opacity=".3"/><path d="M48 168l10-76h44l10 76-32 10z" fill="url(#coat)" stroke="#f4deb0" stroke-width="4"/><circle cx="80" cy="62" r="28" fill="#f0c9aa" stroke="#5a4538" stroke-width="4"/><path d="M53 60c2-29 18-42 38-39 17 3 31 18 20 42-17-8-38-11-58-3z" fill="#5f3e32"/><path d="M56 105l-23 35M104 105l23 35" stroke="#d88a61" stroke-width="8" stroke-linecap="round"/><rect x="27" y="129" width="32" height="39" rx="5" fill="#f0e1bd" stroke="#7b5b44" stroke-width="3"/><path d="M35 139h16M35 148h16M35 157h11" stroke="#b17b5a" stroke-width="2"/><circle cx="69" cy="64" r="3"/><circle cx="91" cy="64" r="3"/><path d="M71 78c6 5 12 5 18 0" fill="none" stroke="#a9685d" stroke-width="3"/><circle cx="124" cy="45" r="13" fill="#ffd36f"/><path d="M124 36v11" stroke="#7d5a1e" stroke-width="4" stroke-linecap="round"/><circle cx="124" cy="53" r="2.5" fill="#7d5a1e"/></svg>